<?xml version="1.0" standalone="no"?>
<!DOCTYPE svg PUBLIC "-//W3C//DTD SVG 20010904//EN"
 "http://www.w3.org/TR/2001/REC-SVG-20010904/DTD/svg10.dtd">
<svg version="1.0" xmlns="http://www.w3.org/2000/svg"
 width="343.000000pt" height="343.000000pt" viewBox="0 0 343.000000 343.000000"
 preserveAspectRatio="xMidYMid meet">
<metadata>
Created by potrace 1.11, written by Peter Selinger 2001-2013
</metadata>
<g transform="translate(0.000000,343.000000) scale(0.100000,-0.100000)"
fill="#000000" stroke="none">
<path d="M1545 3048 c-22 -5 -62 -14 -90 -19 -27 -6 -59 -14 -70 -19 -11 -4
-36 -13 -55 -20 -261 -91 -450 -256 -578 -505 -43 -84 -74 -161 -93 -232 -5
-18 -14 -50 -19 -70 -28 -102 -52 -321 -53 -478 0 -144 24 -385 52 -515 6 -25
13 -58 16 -75 13 -60 76 -266 95 -310 74 -174 147 -304 234 -418 158 -208 332
-294 595 -297 62 0 117 -3 121 -5 5 -3 11 -23 15 -45 l7 -40 218 0 218 0 -8
37 c-5 21 -11 72 -15 114 l-7 77 48 33 c63 43 180 160 231 229 88 122 144 254
178 422 28 136 31 247 15 458 -6 69 -14 236 -20 371 -14 331 -33 465 -101 684
-49 156 -147 333 -238 428 -37 39 -142 112 -196 136 -16 7 -37 17 -45 21 -8 4
-40 13 -70 20 -30 7 -68 16 -84 21 -37 11 -249 9 -301 -3z m240 -111 c102 -75
232 -250 305 -412 42 -94 106 -290 129 -397 12 -54 26 -117 31 -140 30 -125
54 -313 71 -538 30 -420 -40 -795 -199 -1071 -44 -75 -54 -84 -127 -119 -38
-18 -77 -36 -85 -40 -8 -4 -40 -13 -70 -19 -30 -7 -71 -17 -91 -22 -20 -5 -47
-9 -61 -9 -14 0 -28 -3 -32 -7 -11 -11 -114 -32 -161 -32 -88 -2 -226 53 -309
122 -66 55 -126 114 -126 124 0 4 -15 24 -34 44 -18 19 -43 53 -55 75 -12 21
-44 76 -70 120 -27 45 -58 108 -70 140 -12 32 -25 62 -29 68 -28 45 -98 302
-118 436 -8 52 -18 106 -23 120 -15 39 -23 361 -12 490 9 112 39 279 59 330 5
14 17 50 26 81 27 94 118 258 192 344 70 82 165 164 234 201 22 12 45 26 52
31 26 19 135 62 213 84 100 28 152 36 235 38 63 1 69 -1 125 -42z"/>
<path d="M1735 2216 c-96 -36 -165 -139 -165 -248 0 -152 99 -271 237 -285
103 -11 247 66 293 158 29 56 28 184 -2 236 -38 65 -100 118 -167 141 -42 15
-156 14 -196 -2z"/>
<path d="M915 2206 c-70 -17 -87 -26 -136 -71 -59 -55 -69 -81 -69 -181 0 -82
2 -88 37 -141 20 -30 52 -65 72 -78 50 -33 145 -58 186 -51 109 21 204 99 231
191 23 81 5 179 -44 236 -69 83 -176 120 -277 95z"/>
<path d="M1196 1685 c-22 -8 -43 -21 -48 -29 -8 -14 -30 -26 -183 -96 -207
-97 -195 -89 -194 -118 1 -44 50 -124 86 -141 30 -15 32 -20 40 -86 9 -81 6
-118 -12 -160 -18 -43 -35 -129 -35 -180 0 -45 10 -55 55 -55 20 0 26 -9 40
-56 l16 -56 407 5 c375 5 667 18 712 32 10 3 20 11 23 18 5 13 -9 376 -18 474
-10 100 -5 98 -212 98 -226 0 -690 -13 -765 -21 -67 -8 -79 8 -20 24 53 15
153 50 177 62 11 5 40 17 65 25 81 28 110 79 90 157 -26 97 -120 140 -224 103z
m112 -61 c38 -18 40 -25 10 -21 -33 3 -33 -47 0 -51 13 -2 25 3 28 12 11 27
24 17 24 -17 0 -26 -6 -36 -25 -45 -14 -7 -34 -12 -43 -12 -10 0 -22 -4 -27
-9 -6 -5 -39 -18 -75 -30 -36 -12 -73 -26 -82 -31 -24 -14 -28 -13 -28 8 0 10
-9 35 -20 57 -23 45 -18 54 42 80 24 10 51 25 60 33 14 12 82 40 99 42 3 0 20
-7 37 -16z m-304 -144 c22 -8 26 -16 26 -47 0 -28 -6 -42 -21 -51 -12 -7 -22
-12 -23 -10 -2 2 -8 18 -16 36 -7 18 -22 38 -34 44 -20 11 -20 12 9 24 17 7
31 13 32 14 1 0 13 -4 27 -10z m-93 -76 c27 -24 24 -52 -5 -60 -30 -7 -58 7
-75 40 -21 38 -9 57 30 46 17 -5 40 -17 50 -26z m989 -181 c0 -9 -4 -30 -9
-47 -24 -78 -52 -175 -64 -221 l-13 -50 -107 -3 c-127 -3 -123 -10 -76 137 17
53 37 114 44 136 l13 40 68 8 c38 4 74 9 79 11 6 3 22 5 38 5 19 1 27 -4 27
-16z m-703 -17 c1 -1 -11 -29 -26 -61 -49 -101 -59 -128 -70 -190 -6 -32 -15
-63 -19 -67 -4 -4 -45 -5 -91 -1 l-83 6 6 36 c3 20 26 86 51 146 25 61 45 115
45 122 0 6 5 13 10 15 10 3 173 -2 177 -6z m223 6 c0 -12 -38 -113 -48 -125
-15 -20 -52 -133 -52 -159 0 -40 -18 -48 -105 -48 -45 0 -84 3 -87 6 -9 9 51
211 89 302 l14 32 94 0 c52 0 95 -3 95 -8z m502 -240 c3 -59 2 -62 -19 -62
-27 0 -29 23 -12 98 22 95 26 91 31 -36z m87 -51 c1 -68 0 -73 -14 -55 -15 20
-21 138 -8 184 7 23 8 21 15 -15 4 -22 7 -73 7 -114z m-39 -81 c0 -5 -21 -9
-47 -9 l-48 2 40 7 c22 4 43 8 48 9 4 0 7 -3 7 -9z m-232 -15 c6 -5 -204 -14
-455 -20 -174 -4 -253 -3 -253 4 0 6 1 12 3 13 11 10 693 12 705 3z"/>
</g>
</svg>
